HIERARCHY
ROOT hip
{
  OFFSET 0.00112043 5.09927 -9.65472
  CHANNELS 6 Xposition Yposition Zposition Zrotation Xrotation Yrotation
  JOINT abdomen
  {
    OFFSET 0 -1.186 -1.5018
    CHANNELS 3 Zrotation Xrotation Yrotation
    JOINT abdomen2
    {
      OFFSET 0 9.964 0.2134
      CHANNELS 3 Zrotation Xrotation Yrotation
      JOINT chest
      {
        OFFSET 0 13.134 -3.2573
        CHANNELS 3 Zrotation Xrotation Yrotation
        JOINT neck
        {
          OFFSET 0 20.686 -1.6905
          CHANNELS 3 Zrotation Xrotation Yrotation
          JOINT head
          {
            OFFSET 0 7.238 -0.1237
            CHANNELS 3 Zrotation Xrotation Yrotation
            End Site
            {
              OFFSET 0 0 0
            }
          }
        }
        JOINT lCollar
        {
          OFFSET 1.7069 20.075 5.0056
          CHANNELS 3 Zrotation Xrotation Yrotation
          JOINT lShldr
          {
            OFFSET 13.6458 -0.047 -4.849
            CHANNELS 3 Zrotation Xrotation Yrotation
            JOINT lForeArm
            {
              OFFSET 28.3255 -0.9759 2.2888
              CHANNELS 3 Zrotation Xrotation Yrotation
              JOINT lHand
              {
                OFFSET 22.1583 -0.53 10.8316
                CHANNELS 3 Zrotation Xrotation Yrotation
                JOINT lThumb1
                {
                  OFFSET 0.786 0.112 2.5817
                  CHANNELS 3 Zrotation Xrotation Yrotation
                  JOINT lThumb2
                  {
                    OFFSET 0.3601 -0.878 4.2331
                    CHANNELS 3 Zrotation Xrotation Yrotation
                    JOINT lThumb2_End
                    {
                      OFFSET 1.8127 -1.216 2.2227
                      CHANNELS 3 Zrotation Xrotation Yrotation
                      End Site
                      {
                        OFFSET 0.0181 -0.0122 0.0222
                      }
                    }
                  }
                }
                JOINT lCarpal1
                {
                  OFFSET 0.9571 1.114 1.7695
                  CHANNELS 3 Zrotation Xrotation Yrotation
                  JOINT lIndex1
                  {
                    OFFSET 4.1246 0.487 4.1451
                    CHANNELS 3 Zrotation Xrotation Yrotation
                    JOINT lIndex2
                    {
                      OFFSET 3.4052 -1.454 2.7682
                      CHANNELS 3 Zrotation Xrotation Yrotation
                      JOINT lIndex2_End
                      {
                        OFFSET 1.4531 -1.795 1.2713
                        CHANNELS 3 Zrotation Xrotation Yrotation
                        End Site
                        {
                          OFFSET 0.0145 -0.0179 0.0127
                        }
                      }
                    }
                  }
                  JOINT lMid1
                  {
                    OFFSET 5.6954 0.21 2.1184
                    CHANNELS 3 Zrotation Xrotation Yrotation
                    JOINT lMid2
                    {
                      OFFSET 3.9766 -1.54 2.3863
                      CHANNELS 3 Zrotation Xrotation Yrotation
                      JOINT lMid2_End
                      {
                        OFFSET 1.4042 -1.926 1.125
                        CHANNELS 3 Zrotation Xrotation Yrotation
                        End Site
                        {
                          OFFSET 0.014 -0.0193 0.0113
                        }
                      }
                    }
                  }
                }
                JOINT lCarpal2
                {
                  OFFSET 2.0956 0.66 -0.3894
                  CHANNELS 3 Zrotation Xrotation Yrotation
                  JOINT lRing1
                  {
                    OFFSET 5.0395 -0.09 2.4971
                    CHANNELS 3 Zrotation Xrotation Yrotation
                    JOINT lRing2
                    {
                      OFFSET 3.7921 -1.552 1.4806
                      CHANNELS 3 Zrotation Xrotation Yrotation
                      JOINT lRing2_End
                      {
                        OFFSET 1.4655 -1.808 0.9609
                        CHANNELS 3 Zrotation Xrotation Yrotation
                        End Site
                        {
                          OFFSET 0.0147 -0.0181 0.0096
                        }
                      }
                    }
                  }
                  JOINT lPinky1
                  {
                    OFFSET 4.9141 -1.269 0.3591
                    CHANNELS 3 Zrotation Xrotation Yrotation
                    JOINT lPinky2
                    {
                      OFFSET 3.1477 -1.685 0.8462
                      CHANNELS 3 Zrotation Xrotation Yrotation
                      JOINT lPinky2_End
                      {
                        OFFSET 0.8055 -1.585 0.7955
                        CHANNELS 3 Zrotation Xrotation Yrotation
                        End Site
                        {
                          OFFSET 0.0081 -0.0158 0.008
                        }
                      }
                    }
                  }
                }
              }
            }
          }
        }
        JOINT rCollar
        {
          OFFSET -1.7069 20.075 5.0056
          CHANNELS 3 Zrotation Xrotation Yrotation
          JOINT rShldr
          {
            OFFSET -13.6458 -0.047 -4.849
            CHANNELS 3 Zrotation Xrotation Yrotation
            JOINT rForeArm
            {
              OFFSET -28.3255 -0.9759 2.2888
              CHANNELS 3 Zrotation Xrotation Yrotation
              JOINT rHand
              {
                OFFSET -22.1583 -0.53 10.8316
                CHANNELS 3 Zrotation Xrotation Yrotation
                JOINT rThumb1
                {
                  OFFSET -0.786 0.112 2.5817
                  CHANNELS 3 Zrotation Xrotation Yrotation
                  JOINT rThumb2
                  {
                    OFFSET -0.3601 -0.878 4.2331
                    CHANNELS 3 Zrotation Xrotation Yrotation
                    JOINT rThumb2_End
                    {
                      OFFSET -1.8127 -1.216 2.2227
                      CHANNELS 3 Zrotation Xrotation Yrotation
                      End Site
                      {
                        OFFSET -0.0181 -0.0122 0.0222
                      }
                    }
                  }
                }
                JOINT rCarpal1
                {
                  OFFSET -0.9571 1.114 1.7695
                  CHANNELS 3 Zrotation Xrotation Yrotation
                  JOINT rIndex1
                  {
                    OFFSET -4.1246 0.487 4.1451
                    CHANNELS 3 Zrotation Xrotation Yrotation
                    JOINT rIndex2
                    {
                      OFFSET -3.4052 -1.454 2.7682
                      CHANNELS 3 Zrotation Xrotation Yrotation
                      JOINT rIndex2_End
                      {
                        OFFSET -1.4531 -1.795 1.2713
                        CHANNELS 3 Zrotation Xrotation Yrotation
                        End Site
                        {
                          OFFSET -0.0145 -0.018 0.0127
                        }
                      }
                    }
                  }
                  JOINT rMid1
                  {
                    OFFSET -5.6954 0.21 2.1184
                    CHANNELS 3 Zrotation Xrotation Yrotation
                    JOINT rMid2
                    {
                      OFFSET -3.9766 -1.54 2.3863
                      CHANNELS 3 Zrotation Xrotation Yrotation
                      JOINT rMid2_End
                      {
                        OFFSET -1.4042 -1.926 1.125
                        CHANNELS 3 Zrotation Xrotation Yrotation
                        End Site
                        {
                          OFFSET -0.014 -0.0193 0.0113
                        }
                      }
                    }
                  }
                }
                JOINT rCarpal2
                {
                  OFFSET -2.0956 0.66 -0.3894
                  CHANNELS 3 Zrotation Xrotation Yrotation
                  JOINT rRing1
                  {
                    OFFSET -5.0395 -0.09 2.4971
                    CHANNELS 3 Zrotation Xrotation Yrotation
                    JOINT rRing2
                    {
                      OFFSET -3.7921 -1.552 1.4806
                      CHANNELS 3 Zrotation Xrotation Yrotation
                      JOINT rRing2_End
                      {
                        OFFSET -1.4655 -1.808 0.9609
                        CHANNELS 3 Zrotation Xrotation Yrotation
                        End Site
                        {
                          OFFSET -0.0147 -0.0181 0.0096
                        }
                      }
                    }
                  }
                  JOINT rPinky1
                  {
                    OFFSET -4.9141 -1.269 0.3592
                    CHANNELS 3 Zrotation Xrotation Yrotation
                    JOINT rPinky2
                    {
                      OFFSET -3.1477 -1.685 0.8462
                      CHANNELS 3 Zrotation Xrotation Yrotation
                      JOINT rPinky2_End
                      {
                        OFFSET -0.8055 -1.585 0.7955
                        CHANNELS 3 Zrotation Xrotation Yrotation
                        End Site
                        {
                          OFFSET -0.0081 -0.0158 0.008
                        }
                      }
                    }
                  }
                }
              }
            }
          }
        }
      }
    }
  }
  JOINT lThigh
  {
    OFFSET 8.367 -8.2066 0.5982
    CHANNELS 3 Zrotation Xrotation Yrotation
    JOINT lShin
    {
      OFFSET 2.1923 -43.463 -0.4932
      CHANNELS 3 Zrotation Xrotation Yrotation
      JOINT lFoot
      {
        OFFSET 0.7333 -45.8593 -2.6451
        CHANNELS 3 Zrotation Xrotation Yrotation
        End Site
        {
          OFFSET 2.6618 -4.2699 12.3931
        }
      }
    }
  }
  JOINT rThigh
  {
    OFFSET -8.367 -8.2066 0.5982
    CHANNELS 3 Zrotation Xrotation Yrotation
    JOINT rShin
    {
      OFFSET -2.1923 -43.463 -0.4931
      CHANNELS 3 Zrotation Xrotation Yrotation
      JOINT rFoot
      {
        OFFSET -0.7333 -45.8593 -2.6451
        CHANNELS 3 Zrotation Xrotation Yrotation
        End Site
        {
          OFFSET -2.6618 -4.2699 12.3931
        }
      }
    }
  }
}
MOTION
Frames:	6
Frame Time:	0.0333333
0 91.7903 2.51682 0 0 -0 0 0 -0 0 0 -0 0 0 -0 0 0 -0 0 0 -0 0 0 -0 1.66051 0.0835086 5.75766 -0.0175111 0.895433 15.7816 7.95139e-016 -1.98785e-016 -0 5.46658e-016 -3.97569e-016 -0 5.96354e-016 0 -0 3.97569e-016 1.98785e-016 9.54166e-015 1.49089e-016 -3.97569e-016 -0 6.4605e-016 0 3.18055e-015 5.96354e-016 0 3.18055e-015 8.94531e-016 -1.98785e-016 6.36111e-015 6.4605e-016 0 3.18055e-015 5.96354e-016 0 3.18055e-015 8.94531e-016 -1.98785e-016 6.36111e-015 1.49089e-016 -3.97569e-016 -0 6.4605e-016 0 3.18055e-015 5.96354e-016 0 3.18055e-015 8.94531e-016 -1.98785e-016 6.36111e-015 6.4605e-016 0 3.18055e-015 5.96354e-016 0 3.18055e-015 8.94531e-016 -1.98785e-016 6.36111e-015 0 0 -0 -1.4496 0.0636048 -5.0245 -1.74811 1.20616 -16.8394 -1.19271e-015 1.98785e-016 -3.18055e-015 -3.97569e-016 1.98785e-016 -3.18055e-015 -2.98177e-016 1.98785e-016 -3.18055e-015 -2.98177e-016 3.97569e-016 -0 4.96962e-016 0 -6.36111e-015 -9.93923e-017 3.97569e-016 -0 -8.94531e-016 5.96354e-016 -0 -3.97569e-016 3.97569e-016 -0 -9.93923e-017 3.97569e-016 -0 -8.94531e-016 5.96354e-016 -0 -3.97569e-016 3.97569e-016 -0 4.96962e-016 0 -6.36111e-015 -9.93923e-017 3.97569e-016 -0 -8.94531e-016 5.96354e-016 -0 -3.97569e-016 3.97569e-016 -0 -9.93923e-017 3.97569e-016 -0 -8.94531e-016 5.96354e-016 -0 -3.97569e-016 3.97569e-016 -0 -4.66111 -0.998717 0.12318 0.00986924 1.54847 0.176523 4.65186 -0.572283 -0.254274 4.66111 -0.998765 -0.123176 -0.00986867 1.54869 -0.176537 -4.65186 -0.572453 0.25427 
0.00206195 -6.88739 -74.7132 -180 -84.373 -180 -0.0671548 9.22693 -0.114683 -0.117648 18.454 -0.222667 -0.117648 18.454 -0.222667 9.52504e-006 18.8934 -4.66237e-006 -2.38628e-008 9.24005 -7.05103e-008 0.930559 0.0690279 8.98714 -80.7988 1.53412 37.9571 35.4366 1.29047 -64.9321 3.2548 25.6246 -3.02754 -3.97569e-015 -1.98785e-015 -0 7.95139e-016 5.1684e-015 -3.18055e-015 -5.73808e-031 5.1684e-015 6.36111e-015 -3.18055e-015 -1.98785e-015 -0 4.77083e-015 0 6.36111e-015 -7.95139e-016 -4.77083e-015 -3.18055e-015 -2.38542e-015 -3.97569e-016 -0 4.77083e-015 0 6.36111e-015 -7.95139e-016 -4.77083e-015 -3.18055e-015 -2.38542e-015 -3.97569e-016 -0 -3.18055e-015 -1.98785e-015 -0 4.77083e-015 0 6.36111e-015 -7.95139e-016 -4.77083e-015 -3.18055e-015 -2.38542e-015 -3.97569e-016 -0 4.77083e-015 0 6.36111e-015 -7.95139e-016 -4.77083e-015 -3.18055e-015 -2.38542e-015 -3.97569e-016 -0 -0.90395 0.0617114 -8.99274 80.9354 1.41285 -37.2284 -36.1911 0.219724 63.9833 -3.58507 25.5085 3.82261 1.54491e-007 1.30519e-006 -2.61318e-006 -4.77083e-015 9.54166e-015 6.36111e-015 0 4.77083e-015 -0 7.95139e-016 -2.38542e-015 -6.36111e-015 1.54491e-007 1.30519e-006 -2.61318e-006 7.95139e-016 1.11319e-014 6.36111e-015 -7.50364e-031 1.35174e-014 3.18055e-015 1.54491e-007 1.30519e-006 -2.61318e-006 7.95139e-016 1.11319e-014 6.36111e-015 -7.50364e-031 1.35174e-014 3.18055e-015 7.95139e-016 -2.38542e-015 -6.36111e-015 1.54491e-007 1.30519e-006 -2.61318e-006 7.95139e-016 1.11319e-014 6.36111e-015 -7.50364e-031 1.35174e-014 3.18055e-015 1.54491e-007 1.30519e-006 -2.61318e-006 7.95139e-016 1.11319e-014 6.36111e-015 -7.50364e-031 1.35174e-014 3.18055e-015 14.7273 1.35334 1.57054 -1.97647 4.97889 1.28375 12.6373 17.9912 -0.499937 -14.7706 1.43206 -1.57115 1.98903 4.96564 -1.29168 -12.6402 17.9735 0.494899 
0.00861851 -0.545243 -70.7641 -180 -89.9981 -180 -0.065524 9.16945 -0.106318 -0.115823 18.339 -0.205892 -0.115823 18.339 -0.205892 5.31952e-006 16.9459 -1.7204e-006 6.66255e-008 7.52863 -8.45578e-008 1.91788 -1.36111 7.89835 -76.6075 1.17393 36.2042 33.1214 4.06914 -61.3406 3.58344 23.1916 -2.90138 1.66478e-006 1.58894e-007 -3.03701e-008 3.18055e-015 1.98785e-015 -0 1.59028e-015 1.98785e-015 6.36111e-015 -7.95139e-016 -4.17448e-015 1.27222e-014 1.66478e-006 1.58894e-007 -3.03701e-008 3.97569e-016 -7.15625e-015 -3.18055e-015 -1.19271e-015 -3.97569e-016 -3.18055e-015 1.66478e-006 1.58894e-007 -3.03701e-008 3.97569e-016 -7.15625e-015 -3.18055e-015 -1.19271e-015 -3.97569e-016 -3.18055e-015 -7.95139e-016 -4.17448e-015 1.27222e-014 1.66478e-006 1.58894e-007 -3.03701e-008 3.97569e-016 -7.15625e-015 -3.18055e-015 -1.19271e-015 -3.97569e-016 -3.18055e-015 1.66478e-006 1.58894e-007 -3.03701e-008 3.97569e-016 -7.15625e-015 -3.18055e-015 -1.19271e-015 -3.97569e-016 -3.18055e-015 -1.78232 -1.39506 -7.90944 76.701 1.07765 -35.4661 -33.941 2.99993 60.3869 -3.84776 23.0824 3.59822 -7.95139e-016 -1.98785e-015 3.18055e-015 -2.38542e-015 -2.78299e-015 3.18055e-015 -3.97569e-015 -7.95139e-016 6.36111e-015 7.95139e-016 -1.19271e-015 3.18055e-015 1.59028e-015 -2.38542e-015 1.27222e-014 -1.59028e-015 3.97569e-016 -0 -1.59028e-015 -7.95139e-016 6.36111e-015 1.59028e-015 -2.38542e-015 1.27222e-014 -1.59028e-015 3.97569e-016 -0 -1.59028e-015 -7.95139e-016 6.36111e-015 7.95139e-016 -1.19271e-015 3.18055e-015 1.59028e-015 -2.38542e-015 1.27222e-014 -1.59028e-015 3.97569e-016 -0 -1.59028e-015 -7.95139e-016 6.36111e-015 1.59028e-015 -2.38542e-015 1.27222e-014 -1.59028e-015 3.97569e-016 -0 -1.59028e-015 -7.95139e-016 6.36111e-015 13.437 0.963039 1.51504 -1.67492 4.97631 1.17055 12.1755 17.2026 -0.485134 -13.6224 1.32263 -1.50365 1.74428 4.91365 -1.19395 -12.1754 17.1244 0.474249 
0.0149178 -0.537833 -70.7649 -180 -89.9981 -180 -0.0676648 9.63097 -0.104675 -0.119781 19.262 -0.202004 -0.119781 19.262 -0.202004 4.44163e-006 16.1544 -1.78705e-006 -6.38649e-008 6.42051 6.7756e-008 2.89127 -2.71932 7.39253 -77.2592 0.896767 36.3352 33.0871 4.26231 -61.6674 4.14879 22.2983 -3.08296 -1.19271e-015 6.55989e-015 -9.54166e-015 1.98785e-015 -7.95139e-016 -6.36111e-015 1.19271e-015 -1.59028e-015 -3.18055e-015 -2.78299e-015 7.35503e-015 -6.36111e-015 -3.97569e-016 -6.95746e-015 1.27222e-014 1.59028e-015 -1.98785e-016 -9.54166e-015 2.38542e-015 3.18055e-015 -9.54166e-015 -3.97569e-016 -6.95746e-015 1.27222e-014 1.59028e-015 -1.98785e-016 -9.54166e-015 2.38542e-015 3.18055e-015 -9.54166e-015 -2.78299e-015 7.35503e-015 -6.36111e-015 -3.97569e-016 -6.95746e-015 1.27222e-014 1.59028e-015 -1.98785e-016 -9.54166e-015 2.38542e-015 3.18055e-015 -9.54166e-015 -3.97569e-016 -6.95746e-015 1.27222e-014 1.59028e-015 -1.98785e-016 -9.54166e-015 2.38542e-015 3.18055e-015 -9.54166e-015 -2.65102 -2.77767 -7.40693 77.3067 0.819287 -35.5887 -33.8978 3.18014 60.6975 -4.38059 22.185 3.73873 -2.38542e-015 7.55382e-015 9.54166e-015 2.38542e-015 2.38542e-015 -3.18055e-015 -2.38542e-015 1.59028e-015 -0 -2.38542e-015 7.55382e-015 9.54166e-015 7.95139e-016 1.98785e-015 6.36111e-015 4.77083e-015 3.18055e-015 -0 1.59028e-015 1.98785e-015 -0 7.95139e-016 1.98785e-015 6.36111e-015 4.77083e-015 3.18055e-015 -0 1.59028e-015 1.98785e-015 -0 -2.38542e-015 7.55382e-015 9.54166e-015 7.95139e-016 1.98785e-015 6.36111e-015 4.77083e-015 3.18055e-015 -0 1.59028e-015 1.98785e-015 -0 7.95139e-016 1.98785e-015 6.36111e-015 4.77083e-015 3.18055e-015 -0 1.59028e-015 1.98785e-015 -0 13.2921 0.825471 1.55151 -1.49763 5.10731 1.12266 12.1919 17.4357 -0.509946 -13.6142 1.45121 -1.52944 1.62169 5.00438 -1.16233 -12.1889 17.2957 0.492767 
0.0212329 -0.530423 -70.7655 -180 -89.9981 -180 -0.069828 10.0945 -0.10297 -0.123846 20.1891 -0.197942 -0.123846 20.1891 -0.197942 3.30282e-006 15.3615 -1.94143e-006 -3.17143e-008 5.30775 7.25737e-008 3.85489 -4.0872 6.90876 -77.9104 0.618092 36.4631 33.054 4.45565 -61.9942 4.70774 21.4032 -3.25398 1.98785e-015 -6.95746e-015 -9.54166e-015 1.98785e-015 -7.95139e-015 -0 5.1684e-015 -9.93923e-016 -3.18055e-015 -7.95139e-016 -1.78906e-015 -3.18055e-015 -1.19271e-015 -1.11319e-014 6.36111e-015 2.78299e-015 -4.17448e-015 -6.36111e-015 1.59028e-015 -8.94531e-015 -6.36111e-015 -1.19271e-015 -1.11319e-014 6.36111e-015 2.78299e-015 -4.17448e-015 -6.36111e-015 1.59028e-015 -8.94531e-015 -6.36111e-015 -7.95139e-016 -1.78906e-015 -3.18055e-015 -1.19271e-015 -1.11319e-014 6.36111e-015 2.78299e-015 -4.17448e-015 -6.36111e-015 1.59028e-015 -8.94531e-015 -6.36111e-015 -1.19271e-015 -1.11319e-014 6.36111e-015 2.78299e-015 -4.17448e-015 -6.36111e-015 1.59028e-015 -8.94531e-015 -6.36111e-015 -3.50957 -4.169 -6.92433 77.9119 0.559613 -35.7086 -33.8555 3.36057 61.008 -4.9079 21.2863 3.8695 3.97252e-031 -3.57812e-015 6.36111e-015 2.38542e-015 0 6.36111e-015 -7.95139e-016 -2.38542e-015 6.36111e-015 3.53113e-031 -3.18055e-015 6.36111e-015 1.59028e-015 -4.77083e-015 9.54166e-015 3.97569e-015 -4.37326e-015 -3.18055e-015 -7.95139e-016 1.98785e-015 -3.18055e-015 1.59028e-015 -4.77083e-015 9.54166e-015 3.97569e-015 -4.37326e-015 -3.18055e-015 -7.95139e-016 1.98785e-015 -3.18055e-015 3.53113e-031 -3.18055e-015 6.36111e-015 1.59028e-015 -4.77083e-015 9.54166e-015 3.97569e-015 -4.37326e-015 -3.18055e-015 -7.95139e-016 1.98785e-015 -3.18055e-015 1.59028e-015 -4.77083e-015 9.54166e-015 3.97569e-015 -4.37326e-015 -3.18055e-015 -7.95139e-016 1.98785e-015 -3.18055e-015 13.1468 0.69411 1.588 -1.31963 5.22594 1.07253 12.2087 17.6748 -0.535437 -13.6059 1.58199 -1.55559 1.49893 5.09051 -1.12979 -12.2026 17.4694 0.511574 
0.0275683 -0.523012 -70.7662 -180 -89.9981 -180 -0.07201 10.5591 -0.101204 -0.128016 21.1183 -0.193711 -0.128016 21.1182 -0.193711 4.05261e-006 14.567 -1.52325e-006 -3.56938e-008 4.1905 -9.07604e-008 4.80925 -5.4636 6.44698 -78.5609 0.337952 36.5878 33.0219 4.64918 -62.3209 5.2606 20.5064 -3.41469 1.71791e-006 7.75495e-007 2.47319e-006 -4.37326e-015 8.54774e-015 -6.36111e-015 -2.78299e-015 -3.77691e-015 -6.36111e-015 1.98785e-015 -3.18055e-015 -0 1.71791e-006 7.75495e-007 2.47319e-006 1.19271e-015 1.78906e-015 -0 1.59028e-015 -1.19271e-015 -9.54166e-015 1.71791e-006 7.75495e-007 2.47319e-006 1.19271e-015 1.78906e-015 -0 1.59028e-015 -1.19271e-015 -9.54166e-015 1.98785e-015 -3.18055e-015 -0 1.71791e-006 7.75495e-007 2.47319e-006 1.19271e-015 1.78906e-015 -0 1.59028e-015 -1.19271e-015 -9.54166e-015 1.71791e-006 7.75495e-007 2.47319e-006 1.19271e-015 1.78906e-015 -0 1.59028e-015 -1.19271e-015 -9.54166e-015 -4.35849 -5.56796 -6.46152 78.5166 0.298665 -35.8258 -33.8143 3.54125 61.3184 -5.42998 20.3863 3.99065 2.92865e-006 -1.55214e-006 -5.1204e-007 7.76068e-007 1.46432e-006 -3.21944e-007 1.55214e-006 2.92865e-006 -6.43888e-007 -7.95139e-016 3.18055e-015 6.36111e-015 2.92865e-006 -1.55214e-006 -5.1204e-007 7.76068e-007 1.46432e-006 -3.21944e-007 1.55214e-006 2.92865e-006 -6.43888e-007 2.92865e-006 -1.55214e-006 -5.1204e-007 7.76068e-007 1.46432e-006 -3.21944e-007 1.55214e-006 2.92865e-006 -6.43888e-007 -7.95139e-016 3.18055e-015 6.36111e-015 2.92865e-006 -1.55214e-006 -5.1204e-007 7.76068e-007 1.46432e-006 -3.21944e-007 1.55214e-006 2.92865e-006 -6.43888e-007 2.92865e-006 -1.55214e-006 -5.1204e-007 7.76068e-007 1.46432e-006 -3.21944e-007 1.55214e-006 2.92865e-006 -6.43888e-007 13.0108 0.136999 1.61513 -1.13787 6.17273 1.085 12.2027 17.5106 -0.519106 -13.5976 1.71521 -1.58213 1.376 5.17173 -1.0963 -12.2164 17.6454 0.530683 
